<svg id="visual" viewBox="0 0 900 600" width="900" height="600" xmlns="http://www.w3.org/2000/svg" xmlns:xlink="http://www.w3.org/1999/xlink" version="1.1"><rect x="0" y="0" width="900" height="600" fill="#fff"></rect><path d="M0 505L21.5 495.2C43 485.3 86 465.7 128.8 467.5C171.7 469.3 214.3 492.7 257.2 502.8C300 513 343 510 385.8 492C428.7 474 471.3 441 514.2 441.3C557 441.7 600 475.3 642.8 475.2C685.7 475 728.3 441 771.2 431.3C814 421.7 857 436.3 878.5 443.7L900 451L900 601L878.5 601C857 601 814 601 771.2 601C728.3 601 685.7 601 642.8 601C600 601 557 601 514.2 601C471.3 601 428.7 601 385.8 601C343 601 300 601 257.2 601C214.3 601 171.7 601 128.8 601C86 601 43 601 21.5 601L0 601Z" fill="#e6e6ff" stroke-linecap="round" stroke-linejoin="miter"></path></svg>